<svg width="90" height="80" viewBox="0 0 90 80" fill="none" xmlns="http://www.w3.org/2000/svg">
<path fill-rule="evenodd" clip-rule="evenodd" d="M25.878 71.7949L2.70401 21.117C1.69259 18.9052 2.87268 16.3102 5.20437 15.6186L54.7905 0.912598L73.084 53.6452L25.878 71.7949Z" fill="#E3EEF3" stroke="#87B9D1" stroke-width="1.5" stroke-linejoin="round"/>
<path fill-rule="evenodd" clip-rule="evenodd" d="M18.2244 4.99999C18.2244 2.23857 20.4629 0 23.2244 0H54.7904L77.7115 21.1059V66.7949C77.7115 69.5563 75.473 71.7949 72.7115 71.7949H23.2244C20.4629 71.7949 18.2244 69.5563 18.2244 66.7949V4.99999Z" fill="white" stroke="#87B9D1" stroke-width="1.5" stroke-linejoin="round"/>
<path d="M28 11.5128H41.3333" stroke="#2896CC" stroke-width="2" stroke-linecap="round" stroke-linejoin="round"/>
<path d="M28 19.7179H44.4615" stroke="#2896CC" stroke-width="2" stroke-linecap="round" stroke-linejoin="round"/>
<path fill-rule="evenodd" clip-rule="evenodd" d="M27.9036 38.0848C27.9036 35.8757 29.6944 34.0848 31.9036 34.0848H84.4677C86.6768 34.0848 88.4677 35.8757 88.4677 38.0848V58.7527C88.4677 60.9618 86.6768 62.7527 84.4677 62.7527H31.9036C29.6944 62.7527 27.9036 60.9618 27.9036 58.7527L27.9036 38.0848Z" fill="white" stroke="#87B9D1" stroke-width="1.5" stroke-linejoin="round"/>
<path fill-rule="evenodd" clip-rule="evenodd" d="M25.9168 79.2387C38.6618 79.2387 48.9937 68.9068 48.9937 56.1618C48.9937 43.4167 38.6618 33.0848 25.9168 33.0848C13.1717 33.0848 2.83984 43.4167 2.83984 56.1618C2.83984 68.9068 13.1717 79.2387 25.9168 79.2387Z" fill="#2896CC"/>
<path fill-rule="evenodd" clip-rule="evenodd" d="M23.3146 56.284L29.9556 49.6431C30.6224 48.9762 31.7036 48.9762 32.3704 49.6431V49.6431C33.0373 50.3099 33.0373 51.3911 32.3704 52.058L25.7295 58.6989L22.7109 59.3027L23.3146 56.284Z" stroke="white" stroke-width="1.5" stroke-linecap="round" stroke-linejoin="round"/>
<path d="M28.5506 51.0481L30.9655 53.463" stroke="white" stroke-width="1.5" stroke-linecap="round" stroke-linejoin="round"/>
<path d="M31.881 60.3405V61.9476C31.881 63.279 30.8017 64.3583 29.4703 64.3583H19.8275C18.4961 64.3583 17.4167 63.279 17.4167 61.9476V52.3048C17.4167 50.9734 18.4961 49.894 19.8275 49.894L21.4346 49.894" stroke="white" stroke-width="1.5" stroke-linecap="round" stroke-linejoin="round"/>
<path fill-rule="evenodd" clip-rule="evenodd" d="M54.7905 0V16.5533C54.7905 19.3147 57.0291 21.5533 59.7905 21.5533H77.7117L54.7905 0Z" fill="#E3EEF3" stroke="#87B9D1" stroke-width="1.5" stroke-linejoin="round"/>
<path d="M54.7905 52.4468C54.7905 52.4468 59.1428 41.855 62.1042 43.5231C65.0657 45.1913 58.3818 53.1488 62.1042 54.7509C65.8267 56.3531 69.1766 41.151 72.7785 42.0029C76.3803 42.8549 71.0963 52.9745 73.63 53.6013C76.1638 54.228 76.5921 48.0672 80.2042 48.6101" stroke="#2896CC" stroke-width="1.5" stroke-linecap="round" stroke-linejoin="round"/>
</svg>
