<svg width="130" height="28" viewBox="0 0 130 28" fill="none" xmlns="http://www.w3.org/2000/svg">
<path fill-rule="evenodd" clip-rule="evenodd" d="M127.761 7.89226C126.275 7.27781 124.898 6.97085 123.629 6.97085C122.391 6.97085 121.41 7.17411 120.686 7.58011C119.963 7.98611 119.601 8.55129 119.601 9.27411C119.601 10.0669 119.883 10.7006 120.449 11.1766C121.003 11.652 122.098 12.182 123.733 12.7663C125.1 13.2522 126.096 13.6976 126.72 14.1041C127.344 14.4904 127.815 14.9363 128.132 15.4419C128.44 15.9371 128.593 16.5266 128.593 17.21C128.593 18.5675 128.073 19.6128 127.032 20.346C126.002 21.0694 124.541 21.4313 122.648 21.4313C120.628 21.4313 119.022 21.1186 117.833 20.4943V19.0083C119.359 19.7715 120.964 20.1531 122.648 20.1531C124.145 20.1531 125.284 19.9048 126.067 19.4096C126.839 18.904 127.226 18.2403 127.226 17.418C127.226 16.6552 126.919 16.0112 126.304 15.486C125.681 14.9706 124.66 14.4603 123.243 13.9553C121.737 13.4103 120.677 12.9447 120.062 12.5579C119.448 12.1519 118.988 11.706 118.681 11.2206C118.364 10.7151 118.205 10.1063 118.205 9.39285C118.205 8.25366 118.686 7.35663 119.647 6.70277C120.587 6.03907 121.915 5.70722 123.629 5.70722C125.264 5.70722 126.815 6.0147 128.281 6.62863L127.761 7.89226ZM116.257 6.39114L115.871 7.6247C114.563 7.18863 113.429 6.97085 112.468 6.97085C110.605 6.97085 109.198 7.54537 108.247 8.69492C107.286 9.83411 106.806 11.484 106.806 13.6442C106.806 15.6851 107.286 17.2847 108.247 18.4446C109.198 19.5937 110.536 20.1682 112.26 20.1682C113.627 20.1682 114.9 19.9255 116.079 19.4402V20.7183C115.118 21.1938 113.855 21.4318 112.289 21.4318C110.119 21.4318 108.42 20.7484 107.192 19.3806C105.973 18.0132 105.364 16.1108 105.364 13.6737C105.364 11.1568 105.998 9.20566 107.266 7.81863C108.534 6.41189 110.278 5.70826 112.498 5.70826C113.805 5.70722 115.058 5.93537 116.257 6.39114ZM83.8293 3.32929C85.5239 5.03366 86.3706 7.51529 86.3706 10.7752C86.3706 14.1933 85.4741 16.7791 83.6805 18.5333C81.887 20.2766 79.2513 21.1487 75.7736 21.1487H70.8996V0.773515H76.3979C79.6584 0.773515 82.1348 1.62544 83.8293 3.32929ZM76.0713 2.03663H72.3265V19.9001H75.7C81.7833 19.9001 84.8249 16.8735 84.8249 10.8198C84.8249 7.90677 84.087 5.71759 82.6103 4.25122C81.1242 2.775 78.9449 2.03663 76.0713 2.03663ZM67.6599 10.9982V21.1487H63.4096V12.0534C63.4096 10.924 63.2063 10.0814 62.8003 9.52663C62.4042 8.96196 61.77 8.67937 60.8979 8.67937C59.7089 8.67937 58.8471 9.0807 58.312 9.88337C57.7873 10.6658 57.5244 11.9792 57.5244 13.822V21.1487H53.2741V5.57396H56.5138L57.0935 7.56559H57.331C57.8065 6.8127 58.4603 6.24751 59.293 5.87107C60.1149 5.47492 61.0565 5.27685 62.1169 5.27685C63.9302 5.27685 65.3073 5.77255 66.2479 6.76292C67.189 7.73359 67.6599 9.14551 67.6599 10.9982ZM92.0479 8.69492C91.1363 9.83411 90.6805 11.4545 90.6805 13.555C90.6805 15.6353 91.1415 17.2603 92.0629 18.4296C92.9744 19.5885 94.2671 20.1687 95.9414 20.1687C97.6059 20.1687 98.899 19.589 99.8199 18.4296C100.731 17.2603 101.187 15.6353 101.187 13.555C101.187 11.4643 100.727 9.84448 99.8054 8.69492C98.8742 7.54589 97.5763 6.97085 95.9113 6.97085C94.2376 6.97085 92.9496 7.54537 92.0479 8.69492ZM95.9565 5.70722C98.0373 5.70722 99.6722 6.41085 100.861 7.81759C102.04 9.20463 102.629 11.1169 102.629 13.554C102.629 16.0206 102.035 17.9531 100.847 19.35C99.6473 20.737 97.9927 21.4308 95.8828 21.4308C94.5549 21.4308 93.3862 21.1083 92.375 20.4648C91.3546 19.8208 90.5768 18.8994 90.0417 17.7006C89.5071 16.5116 89.2396 15.1292 89.2396 13.554C89.2396 11.0868 89.8385 9.1647 91.0378 7.78751C92.2262 6.401 93.8658 5.70722 95.9565 5.70722ZM29.2278 8.67988C28.1778 8.67988 27.415 9.00707 26.939 9.66092C26.4532 10.2951 26.2007 11.3549 26.181 12.841V13.3014C26.181 14.9757 26.4335 16.1751 26.939 16.8984C27.4249 17.6223 28.2068 17.9831 29.2869 17.9831C31.1888 17.9831 32.1403 16.4131 32.1403 13.2724C32.1403 11.7464 31.9075 10.6026 31.4419 9.83929C30.9762 9.06618 30.2384 8.67988 29.2278 8.67988ZM34.9201 7.41677C35.9602 8.83337 36.4803 10.8053 36.4803 13.3315C36.4803 14.996 36.2376 16.4426 35.7523 17.671C35.2566 18.89 34.5582 19.8208 33.6565 20.4653C32.7547 21.1088 31.6996 21.4313 30.4909 21.4313C28.6579 21.4313 27.2211 20.7676 26.181 19.4397H25.958C26.1068 20.7375 26.181 21.4904 26.181 21.6983V27.9999H21.9307V5.57396H25.3933L25.9876 7.59514H26.181C27.1719 6.04996 28.6429 5.27685 30.5946 5.27685C32.4379 5.27633 33.8794 5.98981 34.9201 7.41677ZM19.8348 11.1169C19.8053 14.396 18.9684 16.928 17.3236 18.7111C15.6493 20.5244 13.2512 21.4308 10.1302 21.4308C7.00927 21.4308 4.61216 20.5249 2.93734 18.7117C1.2729 16.8984 0.440674 14.2975 0.440674 10.909C0.440674 7.52048 1.27808 4.93463 2.95238 3.15144C4.39904 1.60574 6.39016 0.728922 8.92675 0.520996V4.17655C7.80675 4.39433 6.92008 4.93463 6.26623 5.79692C5.3946 6.94596 4.95853 8.66018 4.95853 10.9391C4.95853 13.218 5.38941 14.9322 6.25171 16.0812C7.12334 17.2303 8.41653 17.8048 10.1302 17.8048C13.5385 17.8048 15.2625 15.5757 15.3019 11.1174H19.8348V11.1169ZM44.6247 5.27633C46.8242 5.27633 48.5379 5.90529 49.7668 7.16374C50.9957 8.41233 51.6096 10.1411 51.6096 12.3505V14.4163H41.5628C41.6121 15.6249 41.9693 16.5707 42.6325 17.2551C43.3066 17.9287 44.2477 18.2652 45.4559 18.2652C46.3876 18.2652 47.2743 18.1667 48.1164 17.9681C48.9486 17.7804 49.8207 17.4677 50.7318 17.0317V20.331C49.9887 20.6976 49.1964 20.975 48.3539 21.1627C47.5019 21.3416 46.4664 21.4308 45.2479 21.4308C42.7414 21.4308 40.784 20.737 39.3773 19.35C37.9602 17.9624 37.2519 16.0008 37.2519 13.4648C37.2519 10.8587 37.9057 8.84789 39.2134 7.43077C40.5227 5.995 42.3256 5.27633 44.6247 5.27633ZM42.5439 9.1704C42.0285 9.73507 41.7365 10.5424 41.667 11.5924H47.6269C47.6072 10.5424 47.3298 9.73455 46.7947 9.1704C46.2699 8.59589 45.5565 8.30811 44.6553 8.30811C43.7541 8.30811 43.0489 8.59589 42.5439 9.1704Z" fill="#2A96CD"/>
<path fill-rule="evenodd" clip-rule="evenodd" d="M16.7143 9.20002V5.44024L10.7395 11.8455L8.3916 9.82432L14.4256 3.34439L11.1558 3.38898V0.461426H19.5823L19.5677 9.20002H16.7143Z" fill="#2A96CD"/>
</svg>
