<svg width="81" height="81" viewBox="0 0 81 81" fill="none" xmlns="http://www.w3.org/2000/svg">
<path fill-rule="evenodd" clip-rule="evenodd" d="M27.8395 71.7949L4.66543 21.117C3.65402 18.9052 4.83411 16.3102 7.1658 15.6186L56.7519 0.912598L75.0454 53.6452L27.8395 71.7949Z" fill="#E3EEF3" stroke="#87B9D1" stroke-width="1.5" stroke-linejoin="round"/>
<path fill-rule="evenodd" clip-rule="evenodd" d="M20.1858 4.99999C20.1858 2.23857 22.4244 0 25.1858 0H56.7518L79.673 21.1059V66.7949C79.673 69.5563 77.4344 71.7949 74.673 71.7949H25.1858C22.4244 71.7949 20.1858 69.5563 20.1858 66.7949V4.99999Z" fill="white" stroke="#87B9D1" stroke-width="1.5" stroke-linejoin="round"/>
<path fill-rule="evenodd" clip-rule="evenodd" d="M28.9036 38.0848C28.9036 35.8757 30.6944 34.0848 32.9036 34.0848H67.4677C69.6768 34.0848 71.4677 35.8757 71.4677 38.0848V59.7527C71.4677 61.9618 69.6768 63.7527 67.4677 63.7527H32.9036C30.6944 63.7527 28.9036 61.9618 28.9036 59.7527V38.0848Z" fill="#E3EEF3"/>
<path fill-rule="evenodd" clip-rule="evenodd" d="M56.7517 0V16.5533C56.7517 19.3147 58.9903 21.5533 61.7517 21.5533H79.6729L56.7517 0Z" fill="#E3EEF3" stroke="#87B9D1" stroke-width="1.5" stroke-linejoin="round"/>
<path d="M30.0449 10.484H43.3783" stroke="#2896CC" stroke-width="2" stroke-linecap="round" stroke-linejoin="round"/>
<path d="M30.0449 17.6891H46.5065" stroke="#2896CC" stroke-width="2" stroke-linecap="round" stroke-linejoin="round"/>
<path d="M52.6604 43.2277H62.9168" stroke="#2896CC" stroke-width="2" stroke-linecap="round" stroke-linejoin="round"/>
<path fill-rule="evenodd" clip-rule="evenodd" d="M51.5383 50.8118C48.2916 43.4094 40.8984 38.2388 32.2975 38.2388C22.3739 38.2388 14.058 45.122 11.8637 54.3746C5.57794 55.2883 0.75 60.6997 0.75 67.2388C0.75 74.117 6.09181 79.7476 12.8532 80.2083V80.2388H13.75H32.2975H52.4421H53.2975V80.2143C61.033 79.7713 67.1692 73.3581 67.1692 65.5117C67.1692 57.3781 60.5757 50.7845 52.4421 50.7845C52.1386 50.7845 51.8373 50.7937 51.5383 50.8118Z" fill="#2896CC"/>
<path fill-rule="evenodd" clip-rule="evenodd" d="M25.5859 63.4206C26.7909 63.4206 27.7677 62.4438 27.7677 61.2388C27.7677 60.0338 26.7909 59.057 25.5859 59.057C24.3809 59.057 23.4041 60.0338 23.4041 61.2388C23.4041 62.4438 24.3809 63.4206 25.5859 63.4206Z" stroke="white" stroke-width="1.5" stroke-linejoin="round"/>
<path fill-rule="evenodd" clip-rule="evenodd" d="M35.7678 69.2388C36.9727 69.2388 37.9496 68.2619 37.9496 67.0569C37.9496 65.852 36.9727 64.8751 35.7678 64.8751C34.5628 64.8751 33.5859 65.852 33.5859 67.0569C33.5859 68.2619 34.5628 69.2388 35.7678 69.2388Z" stroke="white" stroke-width="1.5" stroke-linejoin="round"/>
<path fill-rule="evenodd" clip-rule="evenodd" d="M35.7678 57.6024C36.9727 57.6024 37.9496 56.6256 37.9496 55.4206C37.9496 54.2156 36.9727 53.2388 35.7678 53.2388C34.5628 53.2388 33.5859 54.2156 33.5859 55.4206C33.5859 56.6256 34.5628 57.6024 35.7678 57.6024Z" stroke="white" stroke-width="1.5" stroke-linejoin="round"/>
<path d="M33.9352 65.7655L27.3743 62.3374" stroke="white" stroke-width="1.5" stroke-linejoin="round"/>
<path d="M33.9352 56.5192L27.3743 59.9473" stroke="white" stroke-width="1.5" stroke-linejoin="round"/>
</svg>
