<svg width="79" height="80" viewBox="0 0 79 80" fill="none" xmlns="http://www.w3.org/2000/svg">
<path fill-rule="evenodd" clip-rule="evenodd" d="M25.878 71.7949L2.70401 21.117C1.69259 18.9052 2.87268 16.3102 5.20437 15.6186L54.7905 0.912598L73.084 53.6452L25.878 71.7949Z" fill="#E3EEF3" stroke="#87B9D1" stroke-width="1.5" stroke-linejoin="round"/>
<path fill-rule="evenodd" clip-rule="evenodd" d="M18.2244 4.99999C18.2244 2.23857 20.4629 0 23.2244 0H54.7904L77.7115 21.1059V66.7949C77.7115 69.5563 75.473 71.7949 72.7115 71.7949H23.2244C20.4629 71.7949 18.2244 69.5563 18.2244 66.7949V4.99999Z" fill="white" stroke="#87B9D1" stroke-width="1.5" stroke-linejoin="round"/>
<path fill-rule="evenodd" clip-rule="evenodd" d="M26.9036 37.0848C26.9036 34.8757 28.6944 33.0848 30.9036 33.0848H65.4677C67.6768 33.0848 69.4677 34.8757 69.4677 37.0848V58.7527C69.4677 60.9618 67.6768 62.7527 65.4677 62.7527H30.9036C28.6944 62.7527 26.9036 60.9618 26.9036 58.7527V37.0848Z" fill="#E3EEF3"/>
<path fill-rule="evenodd" clip-rule="evenodd" d="M54.7903 0V16.5533C54.7903 19.3147 57.0289 21.5533 59.7903 21.5533H77.7114L54.7903 0Z" fill="#E3EEF3" stroke="#87B9D1" stroke-width="1.5" stroke-linejoin="round"/>
<path d="M28.0835 11.484H41.4168" stroke="#2896CC" stroke-width="2" stroke-linecap="round" stroke-linejoin="round"/>
<path d="M28.0835 19.6891H44.545" stroke="#2896CC" stroke-width="2" stroke-linecap="round" stroke-linejoin="round"/>
<path d="M52.699 42.2275H62.9554" stroke="#2896CC" stroke-width="2" stroke-linecap="round" stroke-linejoin="round"/>
<path fill-rule="evenodd" clip-rule="evenodd" d="M25.9168 79.2387C38.6618 79.2387 48.9937 68.9068 48.9937 56.1618C48.9937 43.4167 38.6618 33.0848 25.9168 33.0848C13.1717 33.0848 2.83984 43.4167 2.83984 56.1618C2.83984 68.9068 13.1717 79.2387 25.9168 79.2387Z" fill="#2896CC"/>
<path d="M25.6137 58.4365V48.793" stroke="white" stroke-width="1.5" stroke-linecap="round" stroke-linejoin="round"/>
<path d="M21.4736 52.8498L25.6138 48.7097V48.7097L29.7539 52.8498" stroke="white" stroke-width="1.5" stroke-linecap="round" stroke-linejoin="round"/>
<path d="M17.4167 57.848V61.5959C17.4167 62.7005 18.3122 63.5959 19.4167 63.5959H31.8108C32.9154 63.5959 33.8108 62.7005 33.8108 61.5959V57.848" stroke="white" stroke-width="1.5" stroke-linecap="round" stroke-linejoin="round"/>
</svg>
